<svg version="1.2" xmlns="http://www.w3.org/2000/svg" viewBox="0 0 1024 1024" width="60" height="60">
	<title>appicon-sketch</title>
	<defs>
		<clipPath clipPathUnits="userSpaceOnUse" id="cp1">
			<path d="m0 0h1024v1024h-1024z"/>
		</clipPath>
		<linearGradient id="g1" x1="-212.7" y1="-210.6" x2="1257.2" y2="1244.9" gradientUnits="userSpaceOnUse">
			<stop offset="0" stop-color="#3023ae"/>
			<stop offset="1" stop-color="#c86dd7"/>
		</linearGradient>
		<filter x="-50%" y="-50%" width="200%" height="200%" id="f1" ><feDropShadow dx="0.6840402866513374" dy="1.8793852415718169" stdDeviation="1.6666666666666667" flood-color="#000000" flood-opacity=".5"/></filter>
		<filter x="-50%" y="-50%" width="200%" height="200%" id="f2" ><feDropShadow dx="6.840402866513374" dy="18.79385241571817" stdDeviation="16.666666666666668" flood-color="#000000" flood-opacity=".5"/></filter>
		<filter x="-50%" y="-50%" width="200%" height="200%" id="f3" ><feDropShadow dx="0" dy="0" stdDeviation="4.166666666666667" flood-color="#000000" flood-opacity=".5"/></filter>
		<filter x="-50%" y="-50%" width="200%" height="200%" id="f4" ><feDropShadow dx="0.3472963553338606" dy="1.969615506024416" stdDeviation="1.6666666666666667" flood-color="#000000" flood-opacity=".5"/></filter>
		<filter x="-50%" y="-50%" width="200%" height="200%" id="f5" ><feDropShadow dx="3.472963553338606" dy="19.69615506024416" stdDeviation="16.666666666666668" flood-color="#000000" flood-opacity=".5"/></filter>
		<filter x="-50%" y="-50%" width="200%" height="200%" id="f6" ><feDropShadow dx="0" dy="0" stdDeviation="4.166666666666667" flood-color="#000000" flood-opacity=".5"/></filter>
		<filter x="-50%" y="-50%" width="200%" height="200%" id="f7" ><feDropShadow dx="0.17431148549531647" dy="1.992389396183491" stdDeviation="1.6666666666666667" flood-color="#000000" flood-opacity=".5"/></filter>
		<filter x="-50%" y="-50%" width="200%" height="200%" id="f8" ><feDropShadow dx="1.7431148549531648" dy="19.92389396183491" stdDeviation="16.666666666666668" flood-color="#000000" flood-opacity=".5"/></filter>
		<filter x="-50%" y="-50%" width="200%" height="200%" id="f9" ><feDropShadow dx="0" dy="0" stdDeviation="4.166666666666667" flood-color="#000000" flood-opacity=".5"/></filter>
	</defs>
	<style>
		.s0 { fill: url(#g1) } 
		.s1 { opacity: .1;filter: url(#f1) url(#f2) url(#f3);fill: #ffffff } 
		.s2 { opacity: .1;filter: url(#f4) url(#f5) url(#f6);fill: #ffffff } 
		.s3 { filter: url(#f7) url(#f8) url(#f9);fill: #ffffff } 
	</style>
	<g id="App Icon" clip-path="url(#cp1)">
		<path id="Icon Shape" class="s0" d="m357 0h310c102.8 0 154.2 0 209.5 17.5 60.4 22 108 69.6 130 130 17.5 55.3 17.5 106.7 17.5 209.5v310c0 102.8 0 154.2-17.5 209.5-22 60.4-69.6 108-130 130-55.3 17.5-106.7 17.5-209.5 17.5h-310c-102.8 0-154.2 0-209.5-17.5-60.4-22-108-69.6-130-130-17.5-55.3-17.5-106.7-17.5-209.5v-310c0-102.8 0-154.2 17.5-209.5 22-60.4 69.6-108 130-130 55.3-17.5 106.7-17.5 209.5-17.5"/>
		<path id="Rectangle 3" class="s1" d="m247.3 518.8c-13.8-4.1-28.6 2.3-35.2 15.2l-25.5 50.2c-7.4 14.7-1.7 32.6 12.8 40.2l303.7 159.6c15.2 7.9 34 1.6 41.2-13.9l40.9-87.7 198.8-426.3c7-14.9 0.7-32.6-14.1-39.7l-49.8-24c-14.4-6.9-31.6-1.4-39.3 12.5l-209.2 379.7z"/>
		<path id="Rectangle 2" class="s2" d="m252.1 471.1c-13-6.4-28.7-2.7-37.3 8.9l-33.9 45.1c-9.9 13.1-7.4 31.7 5.6 41.7l271.4 209.9c13.6 10.5 33.1 7.5 43-6.5l55.5-79.3 269.8-385.3c9.5-13.4 6.3-31.9-7-41.5l-44.9-32.3c-12.9-9.3-30.9-6.9-40.9 5.5l-271.9 337.6z"/>
		<path id="Rectangle 1" class="s3" d="m257.5 447.8c-12.3-7.5-28.3-5.2-37.9 5.5l-37.7 42c-11 12.2-10.1 31 2 42.1l252.1 232.8c12.6 11.6 32.3 10.3 43.3-2.8l62.2-74.1 302.4-360.3c10.6-12.6 9.1-31.3-3.4-42.1l-41.8-36c-12.1-10.4-30.2-9.6-41.2 1.9l-300.4 312.6z"/>
	</g>
</svg>